<svg width="1025" height="1024" viewBox="0 0 1025 1024" fill="none" xmlns="http://www.w3.org/2000/svg">
<path d="M692.43 487L757.43 552L676.43 633C670.43 639 670.43 645 676.43 651L693.43 668C699.43 674 705.43 674 711.43 668L792.43 587L917.43 712L836.43 793C830.43 799 830.43 804.667 836.43 810L853.43 828C859.43 834 865.43 834 871.43 828L952.43 747L1015.43 810C1021.43 816 1024.43 823.333 1024.43 832C1024.43 840.667 1021.43 848.333 1015.43 855L855.43 1015C848.763 1021 841.097 1024 832.43 1024C823.763 1024 816.43 1021 810.43 1015L487.43 692L299.43 880C288.763 890.667 275.763 896 260.43 896C245.097 896 232.097 890.667 221.43 880L145.43 803C134.763 792.333 129.43 779.5 129.43 764.5C129.43 749.5 134.763 736.667 145.43 726L333.43 538L9.42999 214C3.42999 208 0.429993 200.667 0.429993 192C0.429993 183.333 3.42999 176 9.42999 170L169.43 9C176.097 3 183.763 0 192.43 0C201.097 0 208.43 3 214.43 9L277.43 72L196.43 153C190.43 159 190.43 165 196.43 171L213.43 188C219.43 194 225.43 194 231.43 188L312.43 107L437.43 232L356.43 313C350.43 319 350.43 325 356.43 331L373.43 348C379.43 354 385.43 354 391.43 348L472.43 267L537.43 333L854.43 16C865.097 5.33333 877.93 0 892.93 0C907.93 0 920.763 5.33333 931.43 16L1008.43 93C1019.1 103.667 1024.43 116.5 1024.43 131.5C1024.43 146.5 1019.1 159.333 1008.43 170L692.43 487ZM66.43 808C67.7633 813.333 70.0967 817.667 73.43 821L203.43 951C206.763 954.333 211.097 956.667 216.43 958C213.097 964.667 210.43 968.667 208.43 970L32.43 1024C16.43 1024 7.09666 1022.67 4.42999 1020C1.76333 1017.33 0.429993 1008 0.429993 992L54.43 816C55.7633 814.667 59.7633 812 66.43 808Z" fill="#AFC5D8"/>
</svg>
