<svg width="20" height="20" viewBox="0 0 20 20" fill="none" xmlns="http://www.w3.org/2000/svg">
<path d="M9.99 6.002C10.1714 6.00204 10.3466 6.06782 10.4832 6.18714C10.6198 6.30647 10.7086 6.47126 10.733 6.651L10.74 6.752L10.738 16.46L13.395 13.8L13.479 13.728C13.6235 13.6205 13.8019 13.5685 13.9815 13.5817C14.1611 13.5948 14.33 13.6722 14.4573 13.7996C14.5846 13.927 14.6618 14.096 14.6748 14.2757C14.6878 14.4553 14.6357 14.6336 14.528 14.778L14.455 14.861L10.53 18.786L10.446 18.859C10.3186 18.9532 10.1646 19.0046 10.0061 19.0059C9.84768 19.0071 9.6929 18.9582 9.564 18.866L9.47 18.786L5.545 14.861L5.472 14.777C5.37781 14.6496 5.3264 14.4956 5.32514 14.3371C5.32388 14.1787 5.37284 14.0239 5.465 13.895L5.545 13.801L5.629 13.728C5.75643 13.6338 5.91041 13.5824 6.06886 13.5811C6.22732 13.5799 6.3821 13.6288 6.511 13.721L6.605 13.801L9.241 16.437L9.24 6.752C9.24 6.55309 9.31902 6.36232 9.45967 6.22167C9.60032 6.08102 9.79109 6.002 9.99 6.002V6.002ZM9.75 0C11.0065 0.000234337 12.2314 0.39463 13.2519 1.12764C14.2725 1.86065 15.0375 2.89535 15.439 4.086L15.544 4.082C16.5943 4.082 17.6015 4.49921 18.3441 5.24186C19.0868 5.9845 19.504 6.99174 19.504 8.042C19.504 9.09226 19.0868 10.0995 18.3441 10.8421C17.6015 11.5848 16.5943 12.002 15.544 12.002H12.747C12.5481 12.002 12.3573 11.923 12.2167 11.7823C12.076 11.6417 11.997 11.4509 11.997 11.252C11.997 11.0531 12.076 10.8623 12.2167 10.7217C12.3573 10.581 12.5481 10.502 12.747 10.502H15.544C15.8882 10.5015 16.2285 10.4287 16.5428 10.2884C16.8571 10.1481 17.1385 9.94336 17.3688 9.68748C17.599 9.43161 17.773 9.13026 17.8795 8.80292C17.9859 8.47558 18.0225 8.12954 17.9869 7.78717C17.9512 7.44481 17.8441 7.11373 17.6725 6.81536C17.5008 6.51699 17.2685 6.25796 16.9905 6.05502C16.7124 5.85208 16.3949 5.70974 16.0584 5.63722C15.7219 5.5647 15.3739 5.5636 15.037 5.634C14.8595 5.67107 14.6745 5.64256 14.5164 5.55376C14.3583 5.46496 14.2377 5.32187 14.177 5.151L14.149 5.047L14.101 4.844C13.8446 3.88627 13.2793 3.0399 12.4929 2.43616C11.7064 1.83243 10.7427 1.50506 9.75127 1.50483C8.7598 1.5046 7.79597 1.83153 7.00924 2.4349C6.22251 3.03828 5.65685 3.88438 5.4 4.842L5.355 5.029L5.353 5.049C5.32955 5.16212 5.28024 5.26829 5.20894 5.35919C5.13764 5.45009 5.04628 5.52327 4.942 5.573L4.843 5.611L4.802 5.623L4.741 5.636C4.71653 5.64044 4.69182 5.64344 4.667 5.645H4.567L4.465 5.63C4.13435 5.56119 3.79308 5.56115 3.46241 5.62988C3.13174 5.6986 2.81875 5.83463 2.5429 6.02949C2.26705 6.22435 2.03424 6.47389 1.85896 6.76257C1.68367 7.05126 1.56966 7.37292 1.524 7.70756C1.47835 8.04219 1.50203 8.38264 1.59358 8.70773C1.68513 9.03282 1.84259 9.3356 2.05616 9.59723C2.26973 9.85887 2.53484 10.0738 2.83502 10.2286C3.13519 10.3833 3.464 10.4747 3.801 10.497L3.963 10.502H6.753C6.94294 10.5023 7.12568 10.5747 7.26434 10.7045C7.403 10.8343 7.48725 11.0119 7.50007 11.2014C7.51289 11.3909 7.45333 11.5782 7.33341 11.7255C7.2135 11.8728 7.04217 11.9691 6.854 11.995L6.752 12.002H3.962C2.92225 11.9855 1.93067 11.5608 1.20122 10.8197C0.471773 10.0786 0.0629425 9.08039 0.0629425 8.0405C0.0629425 7.00061 0.471773 6.00241 1.20122 5.26129C1.93067 4.52016 2.92225 4.09552 3.962 4.079L4.064 4.08C4.46627 2.89087 5.23115 1.85774 6.25108 1.12589C7.27101 0.394042 8.49467 0.000287602 9.75 0V0Z" fill="#AFC5D8"/>
</svg>
