<svg width="20" height="16" viewBox="0 0 20 16" fill="none" xmlns="http://www.w3.org/2000/svg">
<path d="M15.25 6H10.5V7.75C10.5 8.99062 9.49063 10 8.25 10C7.00937 10 6 8.99062 6 7.75V3.95L3.97188 5.16875C3.36875 5.52812 3 6.18125 3 6.88125V8.35937L0.5 9.80312C0.0218754 10.0781 -0.14375 10.6906 0.134375 11.1687L2.63438 15.5C2.90938 15.9781 3.52188 16.1406 4 15.8656L7.23125 14H11.5C12.6031 14 13.5 13.1031 13.5 12H14C14.5531 12 15 11.5531 15 11V9H15.25C15.6656 9 16 8.66562 16 8.25V6.75C16 6.33437 15.6656 6 15.25 6ZM19.8656 4.83125L17.3656 0.499995C17.0906 0.0218704 16.4781 -0.14063 16 0.13437L12.7688 2H9.575C9.2 2 8.83437 2.10625 8.51562 2.30312L7.46875 2.95625C7.175 3.1375 7 3.45937 7 3.80312V7.75C7 8.44062 7.55937 9 8.25 9C8.94063 9 9.5 8.44062 9.5 7.75V5H15.25C16.2156 5 17 5.78437 17 6.75V7.64062L19.5 6.19687C19.9781 5.91875 20.1406 5.30937 19.8656 4.83125V4.83125Z" fill="#AFC5D8"/>
</svg>
